<svg width="22" height="28" viewBox="0 0 22 28" fill="none" xmlns="http://www.w3.org/2000/svg">
<path fill-rule="evenodd" clip-rule="evenodd" d="M10.9623 6.32678C10.9623 6.32678 10.5589 4.54922 12.137 2.47024C13.9101 0.134148 16.3748 0.12085 16.3748 0.12085C16.3748 0.12085 16.7427 2.31952 14.9784 4.43397C13.0989 6.69913 10.9623 6.32678 10.9623 6.32678ZM18.3607 14.4255C18.3607 10.8039 21.2775 9.31449 21.2775 9.31449C21.2775 9.31449 19.7836 6.61491 15.9936 6.61491C13.7905 6.61491 12.0971 7.86939 11.184 7.86939C10.1201 7.86939 8.53758 6.69027 6.48962 6.69027C3.3512 6.69027 0 9.5051 0 14.8688C0 20.3211 3.95849 27.1078 7.09248 27.1078C8.18739 27.1078 9.86742 26.004 11.5608 26.004C13.2231 26.004 14.4465 27.0679 16.0246 27.0679C19.4556 27.0679 22 19.9133 22 19.9133C22 19.9133 18.3607 18.5081 18.3607 14.4255Z" fill="white"/>
</svg>
